<svg width="22" height="22" viewBox="0 0 22 22" fill="none" xmlns="http://www.w3.org/2000/svg">
<path d="M3.66667 1.8335H18.3333C18.5764 1.8335 18.8096 1.93007 18.9815 2.10198C19.1534 2.27389 19.25 2.50705 19.25 2.75016V20.4198C19.2501 20.4963 19.231 20.5716 19.1945 20.6388C19.1581 20.7061 19.1054 20.7631 19.0412 20.8047C18.9771 20.8464 18.9035 20.8713 18.8273 20.8772C18.751 20.8832 18.6745 20.8699 18.6047 20.8387L11 17.4443L3.39533 20.8378C3.32558 20.869 3.24914 20.8822 3.17296 20.8763C3.09678 20.8704 3.02329 20.8456 2.95916 20.8041C2.89503 20.7625 2.84231 20.7056 2.80578 20.6385C2.76925 20.5714 2.75008 20.4962 2.75 20.4198V2.75016C2.75 2.50705 2.84658 2.27389 3.01849 2.10198C3.19039 1.93007 3.42355 1.8335 3.66667 1.8335ZM17.4167 18.3014V3.66683H4.58333V18.3014L11 15.4377L17.4167 18.3014ZM11 12.3752L8.30592 13.7914L8.82017 10.7921L6.64125 8.66725L9.65342 8.22908L11 5.50016L12.3475 8.22908L15.3587 8.66725L13.1798 10.7921L13.6932 13.7914L11 12.3752Z" fill="#1F77FC"/>
</svg>
