<svg width="22" height="22" viewBox="0 0 22 22" fill="none" xmlns="http://www.w3.org/2000/svg">
<path d="M4.58317 1.8335H17.4165C17.6596 1.8335 17.8928 1.93007 18.0647 2.10198C18.2366 2.27389 18.3332 2.50705 18.3332 2.75016V20.2979C18.3333 20.3799 18.3114 20.4604 18.2698 20.531C18.2283 20.6016 18.1685 20.6598 18.0968 20.6995C18.0251 20.7392 17.9441 20.7589 17.8621 20.7566C17.7802 20.7544 17.7004 20.7302 17.631 20.6866L10.9998 16.5277L4.36867 20.6857C4.29934 20.7292 4.21961 20.7534 4.13776 20.7557C4.05592 20.758 3.97495 20.7384 3.90327 20.6988C3.8316 20.6592 3.77184 20.6012 3.7302 20.5307C3.68856 20.4602 3.66656 20.3798 3.6665 20.2979V2.75016C3.6665 2.50705 3.76308 2.27389 3.93499 2.10198C4.1069 1.93007 4.34006 1.8335 4.58317 1.8335ZM16.4998 3.66683H5.49984V17.8128L10.9998 14.3652L16.4998 17.8128V3.66683ZM7.33317 8.25016H14.6665V10.0835H7.33317V8.25016Z" fill="#1F77FC"/>
</svg>
