<svg width="16" height="16" viewBox="0 0 16 16" fill="none" xmlns="http://www.w3.org/2000/svg">
<g clip-path="url(#clip0_824_4343)">
<path d="M8.63184 13.684H11.7897V14.9471H4.21078V13.684H7.36868V13.0208C6.3673 12.9202 5.40443 12.5819 4.56027 12.0339C3.71612 11.4859 3.01511 10.7442 2.51562 9.87048L3.61268 9.24395C3.99844 9.91801 4.53439 10.4941 5.1789 10.9274C5.82341 11.3607 6.55914 11.6396 7.32894 11.7424C8.09873 11.8453 8.88187 11.7693 9.61752 11.5203C10.3532 11.2714 11.0215 10.8562 11.5707 10.307C12.1199 9.75787 12.535 9.0895 12.784 8.35385C13.0329 7.6182 13.1089 6.83506 13.0061 6.06526C12.9033 5.29547 12.6244 4.55974 12.191 3.91523C11.7577 3.27071 11.1817 2.73476 10.5076 2.34901L11.1342 1.25195C12.1011 1.8043 12.9048 2.60259 13.4636 3.56583C14.0224 4.52907 14.3165 5.62298 14.316 6.73659C14.316 10.0113 11.8232 12.7044 8.63184 13.0208V13.684ZM8.00026 11.1576C7.41968 11.1576 6.84478 11.0433 6.30839 10.8211C5.77201 10.5989 5.28463 10.2733 4.8741 9.86274C4.46357 9.45221 4.13792 8.96484 3.91574 8.42845C3.69356 7.89206 3.5792 7.31717 3.5792 6.73659C3.5792 6.156 3.69356 5.58111 3.91574 5.04472C4.13792 4.50833 4.46357 4.02096 4.8741 3.61043C5.28463 3.1999 5.77201 2.87424 6.30839 2.65206C6.84478 2.42989 7.41968 2.31553 8.00026 2.31553C9.17279 2.31553 10.2973 2.78132 11.1264 3.61043C11.9555 4.43954 12.4213 5.56405 12.4213 6.73659C12.4213 7.90912 11.9555 9.03363 11.1264 9.86274C10.2973 10.6919 9.17279 11.1576 8.00026 11.1576ZM8.00026 9.89448C8.83778 9.89448 9.64101 9.56178 10.2332 8.96955C10.8254 8.37733 11.1582 7.57411 11.1582 6.73659C11.1582 5.89906 10.8254 5.09584 10.2332 4.50362C9.64101 3.9114 8.83778 3.57869 8.00026 3.57869C7.16273 3.57869 6.35951 3.9114 5.76729 4.50362C5.17507 5.09584 4.84236 5.89906 4.84236 6.73659C4.84236 7.57411 5.17507 8.37733 5.76729 8.96955C6.35951 9.56178 7.16273 9.89448 8.00026 9.89448Z" fill="#1F77FC"/>
</g>
<defs>
<clipPath id="clip0_824_4343">
<rect width="15.1579" height="15.1579" fill="white" transform="translate(0.421875 0.420898)"/>
</clipPath>
</defs>
</svg>
