<svg width="16" height="16" viewBox="0 0 16 16" fill="none" xmlns="http://www.w3.org/2000/svg">
<g clip-path="url(#clip0_824_3574)">
<path d="M10.5277 8.63122V3.57859H4.21186V8.63122C4.21186 8.96623 4.34495 9.28752 4.58183 9.52441C4.81872 9.76129 5.14001 9.89438 5.47502 9.89438H9.26449C9.5995 9.89438 9.92079 9.76129 10.1577 9.52441C10.3946 9.28752 10.5277 8.96623 10.5277 8.63122ZM3.58028 2.31543H13.054C13.389 2.31543 13.7103 2.44851 13.9472 2.6854C14.184 2.92229 14.3171 3.24358 14.3171 3.57859V5.47332C14.3171 5.80833 14.184 6.12962 13.9472 6.36651C13.7103 6.6034 13.389 6.73648 13.054 6.73648H11.7908V8.63122C11.7908 9.30124 11.5246 9.94382 11.0509 10.4176C10.5771 10.8914 9.93451 11.1575 9.26449 11.1575H5.47502C4.805 11.1575 4.16242 10.8914 3.68865 10.4176C3.21487 9.94382 2.9487 9.30124 2.9487 8.63122V2.94701C2.9487 2.7795 3.01525 2.61886 3.13369 2.50041C3.25213 2.38197 3.41278 2.31543 3.58028 2.31543ZM11.7908 3.57859V5.47332H13.054V3.57859H11.7908ZM1.68555 12.4207H13.054V13.6839H1.68555V12.4207Z" fill="#1F77FC"/>
</g>
<defs>
<clipPath id="clip0_824_3574">
<rect width="15.1579" height="15.1579" fill="white" transform="translate(0.421875 0.420898)"/>
</clipPath>
</defs>
</svg>
