<svg width="16" height="16" viewBox="0 0 16 16" fill="none" xmlns="http://www.w3.org/2000/svg">
<g clip-path="url(#clip0_824_3581)">
<path d="M9.4328 8.0919L8.89343 8.63127L13.3593 13.0972L12.4663 13.9902L8.00038 9.52496L3.53449 13.9902L2.64143 13.0972L8.53975 7.19885C8.16838 6.27864 8.55238 4.95359 9.56291 3.9418C10.7964 2.70896 12.496 2.40896 13.3593 3.27232C14.2227 4.13569 13.9227 5.83527 12.6899 7.06811C11.6781 8.0799 10.353 8.4639 9.4328 8.0919ZM3.08796 2.8258L7.33028 7.06811L5.54417 8.85485L3.08733 6.39801C2.61372 5.92425 2.34766 5.28179 2.34766 4.6119C2.34766 3.94201 2.61372 3.29955 3.08733 2.8258H3.08796ZM11.7962 6.17443C12.5907 5.38053 12.7543 4.45275 12.4663 4.16475C12.1783 3.87675 11.2505 4.04032 10.4566 4.83422C9.6627 5.62875 9.49912 6.55653 9.78712 6.84453C10.0745 7.1319 11.0023 6.96832 11.7962 6.17443Z" fill="#1F77FC"/>
</g>
<defs>
<clipPath id="clip0_824_3581">
<rect width="15.1579" height="15.1579" fill="white" transform="translate(0.421875 0.420898)"/>
</clipPath>
</defs>
</svg>
