<svg width="18" height="18" viewBox="0 0 18 18" fill="none" xmlns="http://www.w3.org/2000/svg">
<path d="M10.701 9.1095L10.0605 9.75L15.3637 15.0533L14.3032 16.1138L8.99996 10.8113L3.69671 16.1138L2.63621 15.0533L9.64046 8.049C9.19946 6.95625 9.65546 5.38275 10.8555 4.18125C12.3202 2.71725 14.3385 2.361 15.3637 3.38625C16.389 4.4115 16.0327 6.42975 14.5687 7.89375C13.3672 9.09525 11.7937 9.55125 10.701 9.1095ZM3.16646 2.856L8.20421 7.89375L6.08321 10.0155L3.16571 7.098C2.6033 6.53542 2.28735 5.77249 2.28735 4.977C2.28735 4.18151 2.6033 3.41858 3.16571 2.856H3.16646ZM13.5075 6.8325C14.451 5.88975 14.6452 4.788 14.3032 4.446C13.9612 4.104 12.8595 4.29825 11.9167 5.241C10.974 6.1845 10.7797 7.28625 11.1217 7.62825C11.463 7.9695 12.5647 7.77525 13.5075 6.8325Z" fill="#1F77FC"/>
</svg>
