<svg width="22" height="22" viewBox="0 0 22 22" fill="none" xmlns="http://www.w3.org/2000/svg">
<path d="M3.66667 1.83325H18.3333C18.5764 1.83325 18.8096 1.92983 18.9815 2.10174C19.1534 2.27365 19.25 2.5068 19.25 2.74992V20.4196C19.2501 20.4961 19.231 20.5714 19.1945 20.6386C19.1581 20.7058 19.1054 20.7628 19.0412 20.8045C18.9771 20.8461 18.9035 20.8711 18.8273 20.877C18.751 20.8829 18.6745 20.8697 18.6047 20.8385L11 17.4441L3.39533 20.8376C3.32558 20.8688 3.24914 20.882 3.17296 20.8761C3.09678 20.8702 3.02329 20.8454 2.95916 20.8038C2.89503 20.7623 2.84231 20.7054 2.80578 20.6383C2.76925 20.5712 2.75008 20.496 2.75 20.4196V2.74992C2.75 2.5068 2.84658 2.27365 3.01849 2.10174C3.19039 1.92983 3.42355 1.83325 3.66667 1.83325ZM17.4167 18.3012V3.66659H4.58333V18.3012L11 15.4375L17.4167 18.3012ZM11 12.3749L8.30592 13.7912L8.82017 10.7918L6.64125 8.667L9.65342 8.22884L11 5.49992L12.3475 8.22884L15.3587 8.667L13.1798 10.7918L13.6932 13.7912L11 12.3749Z" fill="white"/>
</svg>
