<svg width="22" height="22" viewBox="0 0 22 22" fill="none" xmlns="http://www.w3.org/2000/svg">
<path d="M4.58317 1.83325H17.4165C17.6596 1.83325 17.8928 1.92983 18.0647 2.10174C18.2366 2.27365 18.3332 2.5068 18.3332 2.74992V20.2977C18.3333 20.3796 18.3114 20.4601 18.2698 20.5307C18.2283 20.6014 18.1685 20.6596 18.0968 20.6992C18.0251 20.7389 17.9441 20.7587 17.8621 20.7564C17.7802 20.7541 17.7004 20.7299 17.631 20.6863L10.9998 16.5274L4.36867 20.6854C4.29934 20.729 4.21961 20.7532 4.13776 20.7555C4.05592 20.7578 3.97495 20.7381 3.90327 20.6986C3.8316 20.659 3.77184 20.6009 3.7302 20.5304C3.68856 20.4599 3.66656 20.3795 3.6665 20.2977V2.74992C3.6665 2.5068 3.76308 2.27365 3.93499 2.10174C4.1069 1.92983 4.34006 1.83325 4.58317 1.83325ZM16.4998 3.66659H5.49984V17.8126L10.9998 14.365L16.4998 17.8126V3.66659Z" fill="white"/>
</svg>
