<svg width="20" height="20" viewBox="0 0 20 20" fill="none" xmlns="http://www.w3.org/2000/svg">
<g clip-path="url(#clip0_643_8889)">
<path d="M9.99935 18.3332C5.39685 18.3332 1.66602 14.6023 1.66602 9.99984C1.66602 5.39734 5.39685 1.6665 9.99935 1.6665C14.6018 1.6665 18.3327 5.39734 18.3327 9.99984C18.3327 14.6023 14.6018 18.3332 9.99935 18.3332ZM9.99935 16.6665C11.7675 16.6665 13.4632 15.9641 14.7134 14.7139C15.9636 13.4636 16.666 11.7679 16.666 9.99984C16.666 8.23173 15.9636 6.53603 14.7134 5.28579C13.4632 4.03555 11.7675 3.33317 9.99935 3.33317C8.23124 3.33317 6.53555 4.03555 5.2853 5.28579C4.03506 6.53603 3.33268 8.23173 3.33268 9.99984C3.33268 11.7679 4.03506 13.4636 5.2853 14.7139C6.53555 15.9641 8.23124 16.6665 9.99935 16.6665ZM5.83268 9.99984H7.49935C7.49935 10.6629 7.76274 11.2988 8.23158 11.7676C8.70042 12.2364 9.33631 12.4998 9.99935 12.4998C10.6624 12.4998 11.2983 12.2364 11.7671 11.7676C12.236 11.2988 12.4993 10.6629 12.4993 9.99984H14.166C14.166 11.1049 13.727 12.1647 12.9456 12.9461C12.1642 13.7275 11.1044 14.1665 9.99935 14.1665C8.89428 14.1665 7.83447 13.7275 7.05307 12.9461C6.27167 12.1647 5.83268 11.1049 5.83268 9.99984Z" fill="#0669FF"/>
</g>
<defs>
<clipPath id="clip0_643_8889">
<rect width="20" height="20" fill="white"/>
</clipPath>
</defs>
</svg>
