<svg width="20" height="20" viewBox="0 0 20 20" fill="none" xmlns="http://www.w3.org/2000/svg">
<g clip-path="url(#clip0_643_8894)">
<path d="M2.57199 7.5H17.427C17.5423 7.49995 17.6563 7.52382 17.7619 7.57011C17.8675 7.6164 17.9624 7.6841 18.0405 7.76892C18.1185 7.85375 18.1782 7.95385 18.2156 8.06291C18.253 8.17197 18.2674 8.2876 18.2578 8.4025L17.5628 16.7358C17.5455 16.9441 17.4505 17.1382 17.2968 17.2797C17.1431 17.4213 16.9418 17.4999 16.7328 17.5H3.26616C3.0572 17.4999 2.8559 17.4213 2.70217 17.2797C2.54845 17.1382 2.4535 16.9441 2.43616 16.7358L1.74116 8.4025C1.73159 8.2876 1.74596 8.17197 1.78338 8.06291C1.82079 7.95385 1.88043 7.85375 1.95852 7.76892C2.03661 7.6841 2.13145 7.6164 2.23705 7.57011C2.34264 7.52382 2.45669 7.49995 2.57199 7.5ZM4.03282 15.8333H15.9662L16.5212 9.16667H3.47782L4.03282 15.8333ZM11.1778 4.16667H16.6662C16.8872 4.16667 17.0991 4.25446 17.2554 4.41074C17.4117 4.56702 17.4995 4.77899 17.4995 5V5.83333H2.49949V3.33333C2.49949 3.11232 2.58729 2.90036 2.74357 2.74408C2.89985 2.5878 3.11181 2.5 3.33282 2.5H9.51116L11.1778 4.16667Z" fill="#0669FF"/>
</g>
<defs>
<clipPath id="clip0_643_8894">
<rect width="20" height="20" fill="white"/>
</clipPath>
</defs>
</svg>
