<svg width="20" height="20" viewBox="0 0 20 20" fill="none" xmlns="http://www.w3.org/2000/svg">
<g clip-path="url(#clip0_643_8899)">
<path d="M18.3327 14.1682C18.3323 15.3078 17.9428 16.4131 17.2285 17.3012C16.5143 18.1892 15.5182 18.8068 14.4052 19.0515L13.8735 17.4565C14.3604 17.3763 14.8234 17.1891 15.2292 16.9084C15.635 16.6277 15.9734 16.2605 16.2202 15.8332H14.166C13.724 15.8332 13.3001 15.6576 12.9875 15.345C12.6749 15.0325 12.4993 14.6085 12.4993 14.1665V10.8332C12.4993 10.3911 12.6749 9.96722 12.9875 9.65466C13.3001 9.3421 13.724 9.1665 14.166 9.1665H16.6143C16.411 7.55558 15.6268 6.07423 14.4089 5.0004C13.191 3.92657 11.6231 3.33407 9.99935 3.33407C8.37564 3.33407 6.80774 3.92657 5.58983 5.0004C4.37192 6.07423 3.58771 7.55558 3.38435 9.1665H5.83268C6.27471 9.1665 6.69863 9.3421 7.01119 9.65466C7.32375 9.96722 7.49935 10.3911 7.49935 10.8332V14.1665C7.49935 14.6085 7.32375 15.0325 7.01119 15.345C6.69863 15.6576 6.27471 15.8332 5.83268 15.8332H3.33268C2.89065 15.8332 2.46673 15.6576 2.15417 15.345C1.84161 15.0325 1.66602 14.6085 1.66602 14.1665V9.99984C1.66602 5.39734 5.39685 1.6665 9.99935 1.6665C14.6018 1.6665 18.3327 5.39734 18.3327 9.99984V14.1682ZM16.666 14.1665V10.8332H14.166V14.1665H16.666ZM3.33268 10.8332V14.1665H5.83268V10.8332H3.33268Z" fill="#0669FF"/>
</g>
<defs>
<clipPath id="clip0_643_8899">
<rect width="20" height="20" fill="white"/>
</clipPath>
</defs>
</svg>
