<svg width="19" height="19" viewBox="0 0 19 19" fill="none" xmlns="http://www.w3.org/2000/svg">
<g clip-path="url(#clip0_643_6846)">
<path d="M3.16732 12.6666V3.16659H1.58398V1.58325H3.95898C4.16895 1.58325 4.37031 1.66666 4.51878 1.81513C4.66724 1.96359 4.75065 2.16496 4.75065 2.37492V11.8749H14.5974L16.1807 5.54159H6.33398V3.95825H17.1957C17.316 3.95826 17.4347 3.98569 17.5429 4.03848C17.651 4.09126 17.7457 4.168 17.8198 4.26287C17.8938 4.35774 17.9452 4.46824 17.9701 4.58597C17.9951 4.7037 17.9928 4.82556 17.9636 4.94229L15.9844 12.859C15.9415 13.0302 15.8427 13.1821 15.7035 13.2907C15.5644 13.3993 15.393 13.4582 15.2165 13.4583H3.95898C3.74902 13.4583 3.54766 13.3748 3.39919 13.2264C3.25073 13.0779 3.16732 12.8765 3.16732 12.6666ZM4.75065 18.2083C4.33073 18.2083 3.928 18.0414 3.63107 17.7445C3.33413 17.4476 3.16732 17.0448 3.16732 16.6249C3.16732 16.205 3.33413 15.8023 3.63107 15.5053C3.928 15.2084 4.33073 15.0416 4.75065 15.0416C5.17058 15.0416 5.5733 15.2084 5.87024 15.5053C6.16717 15.8023 6.33398 16.205 6.33398 16.6249C6.33398 17.0448 6.16717 17.4476 5.87024 17.7445C5.5733 18.0414 5.17058 18.2083 4.75065 18.2083ZM14.2507 18.2083C13.8307 18.2083 13.428 18.0414 13.1311 17.7445C12.8341 17.4476 12.6673 17.0448 12.6673 16.6249C12.6673 16.205 12.8341 15.8023 13.1311 15.5053C13.428 15.2084 13.8307 15.0416 14.2507 15.0416C14.6706 15.0416 15.0733 15.2084 15.3702 15.5053C15.6672 15.8023 15.834 16.205 15.834 16.6249C15.834 17.0448 15.6672 17.4476 15.3702 17.7445C15.0733 18.0414 14.6706 18.2083 14.2507 18.2083Z" fill="#0669FF"/>
</g>
<defs>
<clipPath id="clip0_643_6846">
<rect width="19" height="19" fill="white"/>
</clipPath>
</defs>
</svg>
