<svg width="19" height="20" viewBox="0 0 19 20" fill="none" xmlns="http://www.w3.org/2000/svg">
<g clip-path="url(#clip0_643_6563)">
<path d="M2.37565 2.51111H16.6257C16.8356 2.51111 17.037 2.59452 17.1854 2.74298C17.3339 2.89145 17.4173 3.09281 17.4173 3.30278V15.9694C17.4173 16.1794 17.3339 16.3808 17.1854 16.5292C17.037 16.6777 16.8356 16.7611 16.6257 16.7611H2.37565C2.16569 16.7611 1.96432 16.6777 1.81586 16.5292C1.66739 16.3808 1.58398 16.1794 1.58398 15.9694V3.30278C1.58398 3.09281 1.66739 2.89145 1.81586 2.74298C1.96432 2.59452 2.16569 2.51111 2.37565 2.51111ZM15.834 8.84444H3.16732V15.1778H15.834V8.84444ZM15.834 7.26111V4.09444H3.16732V7.26111H15.834ZM11.084 12.0111H14.2507V13.5944H11.084V12.0111Z" fill="#1F77FC"/>
</g>
<defs>
<clipPath id="clip0_643_6563">
<rect width="19" height="19" fill="white" transform="translate(0 0.136108)"/>
</clipPath>
</defs>
</svg>
