<svg width="38" height="19" viewBox="0 0 38 19" fill="none" xmlns="http://www.w3.org/2000/svg">
<path d="M22.1667 2.375H34.8333C35.0433 2.375 35.2447 2.45841 35.3931 2.60687C35.5416 2.75534 35.625 2.9567 35.625 3.16667V15.8333C35.625 16.0433 35.5416 16.2447 35.3931 16.3931C35.2447 16.5416 35.0433 16.625 34.8333 16.625H22.1667C21.9567 16.625 21.7553 16.5416 21.6069 16.3931C21.4584 16.2447 21.375 16.0433 21.375 15.8333V3.16667C21.375 2.9567 21.4584 2.75534 21.6069 2.60687C21.7553 2.45841 21.9567 2.375 22.1667 2.375ZM22.9583 3.95833V15.0417H34.0417V3.95833H22.9583ZM27.7107 12.6667L24.3517 9.30763L25.4711 8.18821L27.7107 10.4278L32.1884 5.94937L33.3086 7.06879L27.7107 12.6667Z" fill="#1F77FC"/>
<path d="M3.16667 2.375H15.8333C16.0433 2.375 16.2447 2.45841 16.3931 2.60687C16.5416 2.75534 16.625 2.9567 16.625 3.16667V15.8333C16.625 16.0433 16.5416 16.2447 16.3931 16.3931C16.2447 16.5416 16.0433 16.625 15.8333 16.625H3.16667C2.9567 16.625 2.75534 16.5416 2.60687 16.3931C2.45841 16.2447 2.375 16.0433 2.375 15.8333V3.16667C2.375 2.9567 2.45841 2.75534 2.60687 2.60687C2.75534 2.45841 2.9567 2.375 3.16667 2.375ZM3.95833 3.95833V15.0417H15.0417V3.95833H3.95833Z" fill="#9D9D9D"/>
</svg>
