<svg width="20" height="20" viewBox="0 0 20 20" fill="none" xmlns="http://www.w3.org/2000/svg">
<g clip-path="url(#clip0_643_8358)">
<path d="M9.99935 18.3333C5.39685 18.3333 1.66602 14.6025 1.66602 9.99996C1.66602 5.39746 5.39685 1.66663 9.99935 1.66663C14.6018 1.66663 18.3327 5.39746 18.3327 9.99996C18.3327 14.6025 14.6018 18.3333 9.99935 18.3333ZM9.99935 16.6666C11.7675 16.6666 13.4632 15.9642 14.7134 14.714C15.9636 13.4638 16.666 11.7681 16.666 9.99996C16.666 8.23185 15.9636 6.53616 14.7134 5.28591C13.4632 4.03567 11.7675 3.33329 9.99935 3.33329C8.23124 3.33329 6.53555 4.03567 5.2853 5.28591C4.03506 6.53616 3.33268 8.23185 3.33268 9.99996C3.33268 11.7681 4.03506 13.4638 5.2853 14.714C6.53555 15.9642 8.23124 16.6666 9.99935 16.6666ZM5.83268 9.99996H7.49935C7.49935 10.663 7.76274 11.2989 8.23158 11.7677C8.70042 12.2366 9.33631 12.5 9.99935 12.5C10.6624 12.5 11.2983 12.2366 11.7671 11.7677C12.236 11.2989 12.4993 10.663 12.4993 9.99996H14.166C14.166 11.105 13.727 12.1648 12.9456 12.9462C12.1642 13.7276 11.1044 14.1666 9.99935 14.1666C8.89428 14.1666 7.83447 13.7276 7.05307 12.9462C6.27167 12.1648 5.83268 11.105 5.83268 9.99996Z" fill="#0669FF"/>
</g>
<defs>
<clipPath id="clip0_643_8358">
<rect width="20" height="20" fill="white"/>
</clipPath>
</defs>
</svg>
