<svg width="24" height="24" viewBox="0 0 24 24" fill="none" xmlns="http://www.w3.org/2000/svg">
<path d="M20.4081 5.41559C21.189 4.6347 21.189 3.36655 20.4081 2.58566C19.6272 1.80478 18.359 1.80478 17.5782 2.58566L11 9.17007L4.41559 2.59191C3.6347 1.81103 2.36655 1.81103 1.58566 2.59191C0.804779 3.37279 0.804779 4.64095 1.58566 5.42183L8.17007 12L1.59191 18.5844C0.811026 19.3653 0.811026 20.6335 1.59191 21.4143C2.37279 22.1952 3.64095 22.1952 4.42183 21.4143L11 14.8299L17.5844 21.4081C18.3653 22.189 19.6335 22.189 20.4143 21.4081C21.1952 20.6272 21.1952 19.359 20.4143 18.5782L13.8299 12L20.4081 5.41559Z" fill="#525252"/>
</svg>
