<svg width="20" height="21" viewBox="0 0 20 21" fill="none" xmlns="http://www.w3.org/2000/svg">
<g clip-path="url(#clip0_901_13824)">
<path d="M17.1111 8.8H18.0556C18.306 8.8 18.5463 8.88955 18.7234 9.04896C18.9005 9.20837 19 9.42457 19 9.65V18.15C19 18.3754 18.9005 18.5916 18.7234 18.751C18.5463 18.9104 18.306 19 18.0556 19H2.94444C2.69396 19 2.45374 18.9104 2.27662 18.751C2.0995 18.5916 2 18.3754 2 18.15V9.65C2 9.42457 2.0995 9.20837 2.27662 9.04896C2.45374 8.88955 2.69396 8.8 2.94444 8.8H3.88889V7.95C3.88889 7.16863 4.05989 6.39492 4.39213 5.67303C4.72437 4.95115 5.21134 4.29522 5.82524 3.74271C6.43914 3.19021 7.16794 2.75193 7.97004 2.45292C8.77213 2.1539 9.63182 2 10.5 2C11.3682 2 12.2279 2.1539 13.03 2.45292C13.8321 2.75193 14.5609 3.19021 15.1748 3.74271C15.7887 4.29522 16.2756 4.95115 16.6079 5.67303C16.9401 6.39492 17.1111 7.16863 17.1111 7.95V8.8ZM3.88889 10.5V17.3H17.1111V10.5H3.88889ZM9.55556 12.2H11.4444V15.6H9.55556V12.2ZM15.2222 8.8V7.95C15.2222 6.82283 14.7247 5.74183 13.8391 4.9448C12.9535 4.14777 11.7524 3.7 10.5 3.7C9.24759 3.7 8.04647 4.14777 7.16088 4.9448C6.2753 5.74183 5.77778 6.82283 5.77778 7.95V8.8H15.2222Z" fill="#9D9D9D"/>
</g>
<defs>
<clipPath id="clip0_901_13824">
<rect width="20" height="20" fill="white" transform="translate(0 0.5)"/>
</clipPath>
</defs>
</svg>
