<svg width="20" height="21" viewBox="0 0 20 21" fill="none" xmlns="http://www.w3.org/2000/svg">
<g clip-path="url(#clip0_812_21435)">
<g clip-path="url(#clip1_812_21435)">
<path d="M10 18C14.4187 18 18 14.4187 18 10C18 5.58125 14.4187 2 10 2C5.58125 2 2 5.58125 2 10C2 14.4187 5.58125 18 10 18ZM8.23125 11.7688C9.20625 12.7438 10.7906 12.7438 11.7656 11.7688C12.0594 11.475 12.5344 11.475 12.825 11.7688C13.1156 12.0625 13.1187 12.5375 12.825 12.8281C11.2625 14.3906 8.73125 14.3906 7.16875 12.8281C5.60625 11.2656 5.60625 8.73438 7.16875 7.17188C8.73125 5.60938 11.2625 5.60938 12.825 7.17188C13.1187 7.46562 13.1187 7.94062 12.825 8.23125C12.5312 8.52187 12.0562 8.525 11.7656 8.23125C10.7906 7.25625 9.20625 7.25625 8.23125 8.23125C7.25625 9.20625 7.25625 10.7906 8.23125 11.7656V11.7688Z" fill="#525252"/>
</g>
</g>
<defs>
<clipPath id="clip0_812_21435">
<rect width="20" height="20" fill="white" transform="translate(0 0.5)"/>
</clipPath>
<clipPath id="clip1_812_21435">
<rect width="16" height="16" fill="white" transform="translate(2 2)"/>
</clipPath>
</defs>
</svg>
