<svg width="24" height="24" viewBox="0 0 24 24" fill="none" xmlns="http://www.w3.org/2000/svg">
<g clip-path="url(#clip0_1306_28442)">
<path d="M3.85938 13.6166L10.918 20.5519C11.2109 20.8397 11.5977 21 12 21C12.4023 21 12.7891 20.8397 13.082 20.5519L20.1406 13.6166C21.3281 12.4532 22 10.8211 22 9.11508V8.87665C22 6.00305 20.0273 3.55289 17.3359 3.08013C15.5547 2.76769 13.7422 3.38023 12.4688 4.72042L12 5.21374L11.5312 4.72042C10.2578 3.38023 8.44531 2.76769 6.66406 3.08013C3.97266 3.55289 2 6.00305 2 8.87665V9.11508C2 10.8211 2.67187 12.4532 3.85938 13.6166Z" fill="#1F77FC"/>
</g>
<defs>
<clipPath id="clip0_1306_28442">
<rect width="24" height="24" fill="white"/>
</clipPath>
</defs>
</svg>
