<svg width="22" height="22" viewBox="0 0 22 22" fill="none" xmlns="http://www.w3.org/2000/svg">
<path d="M15.5835 5.50065H20.1668V7.33398H18.3335V19.2507C18.3335 19.4938 18.2369 19.7269 18.065 19.8988C17.8931 20.0707 17.6599 20.1673 17.4168 20.1673H4.5835C4.34038 20.1673 4.10722 20.0707 3.93532 19.8988C3.76341 19.7269 3.66683 19.4938 3.66683 19.2507V7.33398H1.8335V5.50065H6.41683V2.75065C6.41683 2.50754 6.51341 2.27438 6.68532 2.10247C6.85722 1.93056 7.09038 1.83398 7.3335 1.83398H14.6668C14.9099 1.83398 15.1431 1.93056 15.315 2.10247C15.4869 2.27438 15.5835 2.50754 15.5835 2.75065V5.50065ZM16.5002 7.33398H5.50016V18.334H16.5002V7.33398ZM8.25016 10.084H10.0835V15.584H8.25016V10.084ZM11.9168 10.084H13.7502V15.584H11.9168V10.084ZM8.25016 3.66732V5.50065H13.7502V3.66732H8.25016Z" fill="#313131"/>
</svg>
