<svg width="20" height="20" viewBox="0 0 20 20" fill="none" xmlns="http://www.w3.org/2000/svg">
<g clip-path="url(#clip0_1681_56936)">
<g clip-path="url(#clip1_1681_56936)">
<path d="M12.9219 11.6375C13.5063 11.4719 14.0437 12.0125 13.6906 12.5156C12.95 13.7063 11.5719 14.4719 9.99687 14.4719C8.425 14.4719 7.04688 13.7063 6.27812 12.5156C5.95312 12.0125 6.49062 11.4719 7.07188 11.6375C7.97813 11.8469 8.9625 11.9625 9.99687 11.9625C11.0312 11.9625 12.0188 11.8469 12.9219 11.6375ZM8.5125 8.5C8.5125 9.05312 8.0625 9.5 7.5125 9.5C6.95937 9.5 6.5125 9.05312 6.5125 8.5C6.5125 7.94688 6.95937 7.5 7.5125 7.5C8.0625 7.5 8.5125 7.94688 8.5125 8.5ZM11.5125 8.5C11.5125 7.94688 11.9594 7.5 12.5125 7.5C13.0625 7.5 13.5125 7.94688 13.5125 8.5C13.5125 9.05312 13.0625 9.5 12.5125 9.5C11.9594 9.5 11.5125 9.05312 11.5125 8.5ZM18 10C18 14.4187 14.4187 18 10 18C5.58125 18 2 14.4187 2 10C2 5.58125 5.58125 2 10 2C14.4187 2 18 5.58125 18 10ZM10 3.5C6.40938 3.5 3.5 6.40938 3.5 10C3.5 13.5906 6.40938 16.5 10 16.5C13.5906 16.5 16.5 13.5906 16.5 10C16.5 6.40938 13.5906 3.5 10 3.5Z" fill="#494D53"/>
</g>
</g>
<defs>
<clipPath id="clip0_1681_56936">
<rect width="20" height="20" fill="white"/>
</clipPath>
<clipPath id="clip1_1681_56936">
<rect width="16" height="16" fill="white" transform="translate(2 2)"/>
</clipPath>
</defs>
</svg>
