<svg width="20" height="20" viewBox="0 0 20 20" fill="none" xmlns="http://www.w3.org/2000/svg">
<g clip-path="url(#clip0_901_10049)">
<path d="M2.8 5H17.2C17.4122 5 17.6157 5.05853 17.7657 5.16272C17.9157 5.26691 18 5.40821 18 5.55556V14.4444C18 14.5918 17.9157 14.7331 17.7657 14.8373C17.6157 14.9415 17.4122 15 17.2 15H2.8C2.58783 15 2.38434 14.9415 2.23431 14.8373C2.08429 14.7331 2 14.5918 2 14.4444V5.55556C2 5.40821 2.08429 5.26691 2.23431 5.16272C2.38434 5.05853 2.58783 5 2.8 5ZM16.4 7.35444L10.0576 11.2989L3.6 7.34222V13.8889H16.4V7.35444ZM4.0088 6.11111L10.0488 9.81222L16.0016 6.11111H4.0088Z" fill="white"/>
</g>
<defs>
<clipPath id="clip0_901_10049">
<rect width="20" height="20" fill="white"/>
</clipPath>
</defs>
</svg>
