<svg width="20" height="21" viewBox="0 0 20 21" fill="none" xmlns="http://www.w3.org/2000/svg">
<g clip-path="url(#clip0_901_10039)">
<path d="M10.5 18L5.90378 13.6066C4.99475 12.7376 4.37569 11.6306 4.12489 10.4253C3.8741 9.22007 4.00282 7.97081 4.49479 6.8355C4.98677 5.70019 5.81989 4.72982 6.8888 4.04711C7.95772 3.3644 9.21443 3 10.5 3C11.7856 3 13.0423 3.3644 14.1112 4.04711C15.1801 4.72982 16.0132 5.70019 16.5052 6.8355C16.9972 7.97081 17.1259 9.22007 16.8751 10.4253C16.6243 11.6306 16.0053 12.7376 15.0962 13.6066L10.5 18ZM14.075 12.6304C14.782 11.9546 15.2634 11.0935 15.4585 10.1561C15.6535 9.21869 15.5533 8.24706 15.1707 7.36407C14.788 6.48108 14.14 5.72637 13.3087 5.19539C12.4773 4.66441 11.4999 4.38101 10.5 4.38101C9.50013 4.38101 8.52271 4.66441 7.69134 5.19539C6.85997 5.72637 6.21199 6.48108 5.82933 7.36407C5.44667 8.24706 5.34652 9.21869 5.54155 10.1561C5.73658 11.0935 6.21802 11.9546 6.925 12.6304L10.5 16.0477L14.075 12.6304ZM10.5 10.5939C10.1169 10.5939 9.74951 10.4484 9.47862 10.1895C9.20774 9.93053 9.05556 9.57934 9.05556 9.21315C9.05556 8.84696 9.20774 8.49577 9.47862 8.23684C9.74951 7.9779 10.1169 7.83244 10.5 7.83244C10.8831 7.83244 11.2505 7.9779 11.5214 8.23684C11.7923 8.49577 11.9444 8.84696 11.9444 9.21315C11.9444 9.57934 11.7923 9.93053 11.5214 10.1895C11.2505 10.4484 10.8831 10.5939 10.5 10.5939Z" fill="white"/>
</g>
<defs>
<clipPath id="clip0_901_10039">
<rect width="20" height="20" fill="white" transform="translate(0 0.5)"/>
</clipPath>
</defs>
</svg>
