<svg width="20" height="21" viewBox="0 0 20 21" fill="none" xmlns="http://www.w3.org/2000/svg">
<g clip-path="url(#clip0_901_10044)">
<path d="M8.305 9.40167C9.08695 10.7754 10.2246 11.9131 11.5983 12.695L12.335 11.6633C12.4535 11.4974 12.6286 11.3807 12.8273 11.3353C13.026 11.2898 13.2345 11.3188 13.4133 11.4167C14.5919 12.0608 15.8935 12.4481 17.2325 12.5533C17.4415 12.5699 17.6365 12.6646 17.7788 12.8186C17.921 12.9726 18 13.1745 18 13.3842V17.1025C18 17.3088 17.9235 17.5078 17.7853 17.661C17.6471 17.8142 17.4569 17.9106 17.2517 17.9317C16.81 17.9775 16.365 18 15.9167 18C8.78333 18 3 12.2167 3 5.08333C3 4.635 3.0225 4.19 3.06833 3.74833C3.08938 3.54308 3.18582 3.35293 3.33899 3.21469C3.49216 3.07646 3.69117 2.99996 3.8975 3H7.61583C7.82547 2.99997 8.02741 3.07896 8.1814 3.22121C8.33539 3.36346 8.43011 3.55852 8.44667 3.7675C8.55185 5.10649 8.93923 6.40807 9.58333 7.58667C9.68122 7.76547 9.71018 7.97395 9.66472 8.17266C9.61927 8.37137 9.50255 8.54653 9.33667 8.665L8.305 9.40167ZM6.20333 8.85417L7.78667 7.72333C7.33732 6.75341 7.02946 5.72403 6.8725 4.66667H4.675C4.67 4.805 4.6675 4.94417 4.6675 5.08333C4.66667 11.2967 9.70333 16.3333 15.9167 16.3333C16.0558 16.3333 16.195 16.3308 16.3333 16.325V14.1275C15.276 13.9705 14.2466 13.6627 13.2767 13.2133L12.1458 14.7967C11.6906 14.6198 11.2483 14.4109 10.8225 14.1717L10.7742 14.1442C9.13965 13.2139 7.78607 11.8604 6.85583 10.2258L6.82833 10.1775C6.58909 9.75166 6.38024 9.30945 6.20333 8.85417Z" fill="white"/>
</g>
<defs>
<clipPath id="clip0_901_10044">
<rect width="20" height="20" fill="white" transform="translate(0 0.5)"/>
</clipPath>
</defs>
</svg>
