<svg width="59" height="20" viewBox="0 0 59 20" fill="none" xmlns="http://www.w3.org/2000/svg">
<path d="M0.264205 15V0.454545H3.33949V12.4645H9.57528V15H0.264205ZM16.484 15.2131C15.3808 15.2131 14.4267 14.9787 13.6218 14.5099C12.8216 14.0365 12.2037 13.3783 11.7681 12.5355C11.3325 11.688 11.1147 10.7055 11.1147 9.58807C11.1147 8.46117 11.3325 7.47633 11.7681 6.63352C12.2037 5.78598 12.8216 5.12784 13.6218 4.65909C14.4267 4.18561 15.3808 3.94886 16.484 3.94886C17.5872 3.94886 18.5389 4.18561 19.3391 4.65909C20.1441 5.12784 20.7643 5.78598 21.1999 6.63352C21.6355 7.47633 21.8533 8.46117 21.8533 9.58807C21.8533 10.7055 21.6355 11.688 21.1999 12.5355C20.7643 13.3783 20.1441 14.0365 19.3391 14.5099C18.5389 14.9787 17.5872 15.2131 16.484 15.2131ZM16.4982 12.8693C17.0001 12.8693 17.4192 12.7273 17.7553 12.4432C18.0915 12.1544 18.3448 11.7614 18.5153 11.2642C18.6905 10.767 18.7781 10.2012 18.7781 9.56676C18.7781 8.93229 18.6905 8.36648 18.5153 7.86932C18.3448 7.37216 18.0915 6.97917 17.7553 6.69034C17.4192 6.40151 17.0001 6.2571 16.4982 6.2571C15.9916 6.2571 15.5655 6.40151 15.2198 6.69034C14.8789 6.97917 14.6209 7.37216 14.4457 7.86932C14.2752 8.36648 14.19 8.93229 14.19 9.56676C14.19 10.2012 14.2752 10.767 14.4457 11.2642C14.6209 11.7614 14.8789 12.1544 15.2198 12.4432C15.5655 12.7273 15.9916 12.8693 16.4982 12.8693ZM28.7354 19.3182C27.7553 19.3182 26.9149 19.1832 26.2141 18.9134C25.5181 18.6482 24.9641 18.286 24.5522 17.8267C24.1403 17.3674 23.8728 16.8513 23.7496 16.2784L26.5479 15.902C26.6332 16.1198 26.7681 16.3234 26.9528 16.5128C27.1374 16.7022 27.3813 16.8537 27.6843 16.9673C27.9921 17.0857 28.3661 17.1449 28.8065 17.1449C29.4646 17.1449 30.0067 16.9839 30.4329 16.6619C30.8638 16.3447 31.0792 15.812 31.0792 15.0639V13.0682H30.9513C30.8188 13.3712 30.6199 13.6577 30.3548 13.9276C30.0896 14.1974 29.7487 14.4176 29.332 14.5881C28.9154 14.7585 28.4182 14.8438 27.8406 14.8438C27.0214 14.8438 26.2757 14.6544 25.6033 14.2756C24.9357 13.892 24.4031 13.3073 24.0053 12.5213C23.6123 11.7306 23.4158 10.7315 23.4158 9.52415C23.4158 8.28835 23.6171 7.25616 24.0195 6.42756C24.422 5.59896 24.957 4.97869 25.6246 4.56676C26.297 4.15483 27.0333 3.94886 27.8335 3.94886C28.4442 3.94886 28.9556 4.05303 29.3675 4.26136C29.7795 4.46496 30.1109 4.72064 30.3619 5.02841C30.6175 5.33144 30.814 5.62973 30.9513 5.9233H31.065V4.09091H34.0692V15.1065C34.0692 16.0346 33.842 16.8111 33.3874 17.4361C32.9329 18.0611 32.3031 18.5298 31.4982 18.8423C30.698 19.1596 29.7771 19.3182 28.7354 19.3182ZM28.7994 12.571C29.2871 12.571 29.699 12.4503 30.0352 12.2088C30.3761 11.9626 30.6365 11.6122 30.8164 11.1577C31.0011 10.6984 31.0934 10.1491 31.0934 9.50994C31.0934 8.87074 31.0034 8.31676 30.8235 7.84801C30.6436 7.37453 30.3832 7.00758 30.0423 6.74716C29.7013 6.48674 29.2871 6.35653 28.7994 6.35653C28.3022 6.35653 27.8832 6.49148 27.5423 6.76136C27.2013 7.02651 26.9433 7.39583 26.7681 7.86932C26.5929 8.3428 26.5053 8.88968 26.5053 9.50994C26.5053 10.1397 26.5929 10.6842 26.7681 11.1435C26.948 11.598 27.2061 11.9508 27.5423 12.2017C27.8832 12.4479 28.3022 12.571 28.7994 12.571ZM41.4059 15.2131C40.3027 15.2131 39.3486 14.9787 38.5437 14.5099C37.7435 14.0365 37.1256 13.3783 36.69 12.5355C36.2544 11.688 36.0366 10.7055 36.0366 9.58807C36.0366 8.46117 36.2544 7.47633 36.69 6.63352C37.1256 5.78598 37.7435 5.12784 38.5437 4.65909C39.3486 4.18561 40.3027 3.94886 41.4059 3.94886C42.5091 3.94886 43.4608 4.18561 44.261 4.65909C45.0659 5.12784 45.6862 5.78598 46.1218 6.63352C46.5574 7.47633 46.7752 8.46117 46.7752 9.58807C46.7752 10.7055 46.5574 11.688 46.1218 12.5355C45.6862 13.3783 45.0659 14.0365 44.261 14.5099C43.4608 14.9787 42.5091 15.2131 41.4059 15.2131ZM41.4201 12.8693C41.922 12.8693 42.341 12.7273 42.6772 12.4432C43.0134 12.1544 43.2667 11.7614 43.4371 11.2642C43.6123 10.767 43.6999 10.2012 43.6999 9.56676C43.6999 8.93229 43.6123 8.36648 43.4371 7.86932C43.2667 7.37216 43.0134 6.97917 42.6772 6.69034C42.341 6.40151 41.922 6.2571 41.4201 6.2571C40.9135 6.2571 40.4873 6.40151 40.1417 6.69034C39.8008 6.97917 39.5427 7.37216 39.3675 7.86932C39.1971 8.36648 39.1119 8.93229 39.1119 9.56676C39.1119 10.2012 39.1971 10.767 39.3675 11.2642C39.5427 11.7614 39.8008 12.1544 40.1417 12.4432C40.4873 12.7273 40.9135 12.8693 41.4201 12.8693ZM57.8192 7.2017L55.0494 7.37216C55.002 7.13542 54.9002 6.92235 54.744 6.73295C54.5877 6.53883 54.3817 6.38494 54.1261 6.27131C53.8751 6.15294 53.5745 6.09375 53.2241 6.09375C52.7553 6.09375 52.36 6.19318 52.038 6.39205C51.716 6.58617 51.555 6.84659 51.555 7.1733C51.555 7.43371 51.6592 7.65388 51.8675 7.83381C52.0759 8.01373 52.4334 8.15814 52.94 8.26705L54.9144 8.66477C55.975 8.88258 56.7657 9.23295 57.2866 9.71591C57.8074 10.1989 58.0678 10.8333 58.0678 11.6193C58.0678 12.3343 57.8571 12.9616 57.4357 13.5014C57.0191 14.0412 56.4461 14.4626 55.717 14.7656C54.9925 15.0639 54.1568 15.2131 53.2099 15.2131C51.7657 15.2131 50.6152 14.9124 49.7582 14.3111C48.9059 13.705 48.4064 12.8812 48.2596 11.8395L51.2354 11.6832C51.3254 12.1236 51.5432 12.4598 51.8888 12.6918C52.2345 12.919 52.6772 13.0327 53.217 13.0327C53.7473 13.0327 54.1734 12.9309 54.4954 12.7273C54.8221 12.5189 54.9878 12.2514 54.9925 11.9247C54.9878 11.6501 54.8718 11.4252 54.6445 11.25C54.4173 11.0701 54.0669 10.9328 53.5934 10.8381L51.7042 10.4616C50.6388 10.2486 49.8458 9.87926 49.3249 9.35369C48.8088 8.82812 48.5508 8.15814 48.5508 7.34375C48.5508 6.64299 48.7402 6.0393 49.119 5.53267C49.5025 5.02604 50.0399 4.63542 50.7312 4.3608C51.4272 4.08617 52.2416 3.94886 53.1744 3.94886C54.5522 3.94886 55.6365 4.24006 56.4272 4.82244C57.2227 5.40483 57.6867 6.19792 57.8192 7.2017Z" fill="#313131"/>
</svg>
