<svg width="22" height="22" viewBox="0 0 22 22" fill="none" xmlns="http://www.w3.org/2000/svg">
<path d="M11.0011 4.15156C13.1543 2.21831 16.4818 2.28248 18.5563 4.36056C20.6298 6.43956 20.7013 9.75056 18.7726 11.9102L10.9993 19.6946L3.22775 11.9102C1.29908 9.75056 1.3715 6.43406 3.44409 4.36056C5.52033 2.28523 8.84142 2.21556 11.0011 4.15156ZM17.2583 5.65581C15.8833 4.27898 13.6649 4.22307 12.2258 5.51556L11.002 6.61373L9.77733 5.51648C8.33358 4.22215 6.11983 4.27898 4.74117 5.65765C3.37533 7.02348 3.30659 9.20973 4.56517 10.6544L11.0002 17.0995L17.4352 10.6553C18.6947 9.20973 18.6259 7.02623 17.2583 5.65581Z" fill="#1F77FC"/>
</svg>
