<svg width="24" height="24" viewBox="0 0 24 24" fill="none" xmlns="http://www.w3.org/2000/svg">
<path d="M4.828 20.99L4.808 21.01L4.787 20.99H2.992C2.72881 20.9897 2.4765 20.885 2.29049 20.6988C2.10448 20.5126 2 20.2602 2 19.997V3.983C2.00183 3.72038 2.1069 3.46902 2.29251 3.28322C2.47813 3.09742 2.72938 2.99209 2.992 2.99H21.008C21.556 2.99 22 3.435 22 3.983V19.997C21.9982 20.2596 21.8931 20.511 21.7075 20.6968C21.5219 20.8826 21.2706 20.9879 21.008 20.99H4.828ZM20 14.99V4.99H4V18.99L14 8.99L20 14.99ZM20 17.818L14 11.818L6.828 18.99H20V17.818ZM8 10.99C7.46957 10.99 6.96086 10.7793 6.58579 10.4042C6.21071 10.0291 6 9.52043 6 8.99C6 8.45956 6.21071 7.95086 6.58579 7.57578C6.96086 7.20071 7.46957 6.99 8 6.99C8.53043 6.99 9.03914 7.20071 9.41421 7.57578C9.78929 7.95086 10 8.45956 10 8.99C10 9.52043 9.78929 10.0291 9.41421 10.4042C9.03914 10.7793 8.53043 10.99 8 10.99Z" fill="white"/>
</svg>
