<svg width="20" height="20" viewBox="0 0 20 20" fill="none" xmlns="http://www.w3.org/2000/svg">
<g clip-path="url(#clip0_643_7466)">
<path d="M9.99935 18.3334C5.39685 18.3334 1.66602 14.6025 1.66602 10C1.66602 5.39752 5.39685 1.66669 9.99935 1.66669C14.6018 1.66669 18.3327 5.39752 18.3327 10C18.3327 14.6025 14.6018 18.3334 9.99935 18.3334ZM8.09102 16.3892C7.26886 14.6453 6.79258 12.7585 6.68852 10.8334H3.38435C3.5465 12.1158 4.07762 13.3235 4.91316 14.3098C5.74869 15.2961 6.85269 16.0185 8.09102 16.3892ZM8.35768 10.8334C8.48352 12.8659 9.06435 14.775 9.99935 16.46C10.9596 14.7305 11.5206 12.8079 11.641 10.8334H8.35768ZM16.6143 10.8334H13.3102C13.2061 12.7585 12.7298 14.6453 11.9077 16.3892C13.146 16.0185 14.25 15.2961 15.0855 14.3098C15.9211 13.3235 16.4522 12.1158 16.6143 10.8334ZM3.38435 9.16669H6.68852C6.79258 7.24151 7.26886 5.35476 8.09102 3.61085C6.85269 3.98159 5.74869 4.70398 4.91316 5.69027C4.07762 6.67655 3.5465 7.88427 3.38435 9.16669ZM8.35852 9.16669H11.6402C11.52 7.19219 10.9593 5.26963 9.99935 3.54002C9.03908 5.26956 8.47815 7.19212 8.35768 9.16669H8.35852ZM11.9077 3.61085C12.7298 5.35476 13.2061 7.24151 13.3102 9.16669H16.6143C16.4522 7.88427 15.9211 6.67655 15.0855 5.69027C14.25 4.70398 13.146 3.98159 11.9077 3.61085Z" fill="#525252"/>
</g>
<defs>
<clipPath id="clip0_643_7466">
<rect width="20" height="20" fill="white"/>
</clipPath>
</defs>
</svg>
