<svg width="16" height="16" viewBox="0 0 16 16" fill="none" xmlns="http://www.w3.org/2000/svg">
<path d="M2.31578 2.31641H13.6842C13.8517 2.31641 14.0124 2.38295 14.1308 2.50139C14.2492 2.61984 14.3158 2.78048 14.3158 2.94799V13.0532C14.3158 13.2208 14.2492 13.3814 14.1308 13.4998C14.0124 13.6183 13.8517 13.6848 13.6842 13.6848H2.31578C2.14828 13.6848 1.98763 13.6183 1.86919 13.4998C1.75075 13.3814 1.6842 13.2208 1.6842 13.0532V2.94799C1.6842 2.78048 1.75075 2.61984 1.86919 2.50139C1.98763 2.38295 2.14828 2.31641 2.31578 2.31641ZM13.0526 4.99304L8.04547 9.47725L2.94736 4.97914V12.4217H13.0526V4.99304ZM3.2701 3.57956L8.03852 7.78714L12.7381 3.57956H3.2701Z" fill="#1F77FC"/>
</svg>
