<svg width="24" height="24" viewBox="0 0 24 24" fill="none" xmlns="http://www.w3.org/2000/svg">
<g clip-path="url(#clip0_1396_49122)">
<g clip-path="url(#clip1_1396_49122)">
<path d="M2.40039 5.99766C2.40039 4.67391 3.47664 3.59766 4.80039 3.59766H19.2004C20.5241 3.59766 21.6004 4.67391 21.6004 5.99766V17.9977C21.6004 19.3214 20.5241 20.3977 19.2004 20.3977H4.80039C3.47664 20.3977 2.40039 19.3214 2.40039 17.9977V5.99766ZM14.5429 9.99141C14.3741 9.74391 14.0966 9.59766 13.8004 9.59766C13.5041 9.59766 13.2229 9.74391 13.0579 9.99141L9.79539 14.7764L8.80164 13.5352C8.62914 13.3214 8.37039 13.1977 8.10039 13.1977C7.83039 13.1977 7.56789 13.3214 7.39914 13.5352L4.99914 16.5352C4.78164 16.8052 4.74039 17.1764 4.89039 17.4877C5.04039 17.7989 5.35539 17.9977 5.70039 17.9977H9.30039H10.5004H18.3004C18.6341 17.9977 18.9416 17.8139 19.0954 17.5177C19.2491 17.2214 19.2304 16.8652 19.0429 16.5914L14.5429 9.99141ZM6.60039 9.59766C7.59414 9.59766 8.40039 8.79141 8.40039 7.79766C8.40039 6.80391 7.59414 5.99766 6.60039 5.99766C5.60664 5.99766 4.80039 6.80391 4.80039 7.79766C4.80039 8.79141 5.60664 9.59766 6.60039 9.59766Z" fill="white"/>
</g>
</g>
<defs>
<clipPath id="clip0_1396_49122">
<rect width="24" height="24" fill="white"/>
</clipPath>
<clipPath id="clip1_1396_49122">
<rect width="19.2" height="19.2" fill="white" transform="translate(2.40039 2.39844)"/>
</clipPath>
</defs>
</svg>
