<svg width="19" height="19" viewBox="0 0 19 19" fill="none" xmlns="http://www.w3.org/2000/svg">
<path d="M9.5 18.7848L4.46184 13.7466C3.4654 12.7501 2.78681 11.4806 2.5119 10.0985C2.23699 8.71637 2.37809 7.28377 2.91737 5.98186C3.45665 4.67994 4.36988 3.56717 5.54157 2.78427C6.71327 2.00137 8.09081 1.5835 9.5 1.5835C10.9092 1.5835 12.2867 2.00137 13.4584 2.78427C14.6301 3.56717 15.5434 4.67994 16.0826 5.98186C16.6219 7.28377 16.763 8.71637 16.4881 10.0985C16.2132 11.4806 15.5346 12.7501 14.5382 13.7466L9.5 18.7848ZM13.4188 12.6272C14.1937 11.8521 14.7214 10.8647 14.9352 9.78975C15.149 8.71479 15.0392 7.60057 14.6198 6.588C14.2003 5.57542 13.49 4.70997 12.5787 4.10107C11.6674 3.49217 10.596 3.16717 9.5 3.16717C8.40399 3.16717 7.33259 3.49217 6.42128 4.10107C5.50997 4.70997 4.79968 5.57542 4.38022 6.588C3.96077 7.60057 3.851 8.71479 4.06478 9.78975C4.27856 10.8647 4.80629 11.8521 5.58125 12.6272L9.5 16.5459L13.4188 12.6272ZM9.5 10.2918C9.08008 10.2918 8.67735 10.125 8.38042 9.82802C8.08348 9.53109 7.91667 9.12836 7.91667 8.70843C7.91667 8.28851 8.08348 7.88578 8.38042 7.58885C8.67735 7.29192 9.08008 7.1251 9.5 7.1251C9.91993 7.1251 10.3227 7.29192 10.6196 7.58885C10.9165 7.88578 11.0833 8.28851 11.0833 8.70843C11.0833 9.12836 10.9165 9.53109 10.6196 9.82802C10.3227 10.125 9.91993 10.2918 9.5 10.2918Z" fill="#9D9D9D"/>
</svg>
