<svg width="16" height="16" viewBox="0 0 16 16" fill="none" xmlns="http://www.w3.org/2000/svg">
<g clip-path="url(#clip0_903_53876)">
<path d="M8.00001 15.4084L3.98064 11.3891C3.1857 10.5941 2.64433 9.58129 2.42501 8.47866C2.20569 7.37604 2.31826 6.23314 2.74849 5.19449C3.17872 4.15584 3.90728 3.26809 4.84204 2.6435C5.7768 2.01892 6.87578 1.68555 8.00001 1.68555C9.12424 1.68555 10.2232 2.01892 11.158 2.6435C12.0927 3.26809 12.8213 4.15584 13.2515 5.19449C13.6818 6.23314 13.7943 7.37604 13.575 8.47866C13.3557 9.58129 12.8143 10.5941 12.0194 11.3891L8.00001 15.4084ZM11.1263 10.496C11.7446 9.87771 12.1656 9.08995 12.3361 8.23236C12.5067 7.37478 12.4191 6.48587 12.0845 5.67806C11.7499 4.87024 11.1832 4.1798 10.4562 3.69402C9.72914 3.20825 8.87439 2.94897 8.00001 2.94897C7.12563 2.94897 6.27088 3.20825 5.54385 3.69402C4.81682 4.1798 4.25016 4.87024 3.91553 5.67806C3.5809 6.48587 3.49332 7.37478 3.66387 8.23236C3.83442 9.08995 4.25544 9.87771 4.87369 10.496L8.00001 13.6223L11.1263 10.496ZM8.00001 8.63286C7.665 8.63286 7.34371 8.49978 7.10682 8.26289C6.86993 8.02601 6.73685 7.70472 6.73685 7.36971C6.73685 7.0347 6.86993 6.71341 7.10682 6.47652C7.34371 6.23963 7.665 6.10655 8.00001 6.10655C8.33502 6.10655 8.65631 6.23963 8.8932 6.47652C9.13008 6.71341 9.26317 7.0347 9.26317 7.36971C9.26317 7.70472 9.13008 8.02601 8.8932 8.26289C8.65631 8.49978 8.33502 8.63286 8.00001 8.63286Z" fill="#1F77FC"/>
</g>
<defs>
<clipPath id="clip0_903_53876">
<rect width="15.1579" height="15.1579" fill="white" transform="translate(0.421051 0.421875)"/>
</clipPath>
</defs>
</svg>
