<svg width="20" height="20" viewBox="0 0 20 20" fill="none" xmlns="http://www.w3.org/2000/svg">
<g clip-path="url(#clip0_643_7401)">
<path d="M8.18435 1.865C7.54284 3.25755 7.34354 4.81326 7.61328 6.32255C7.88302 7.83184 8.60885 9.22221 9.693 10.3064C10.7771 11.3905 12.1675 12.1163 13.6768 12.3861C15.1861 12.6558 16.7418 12.4565 18.1343 11.815C17.306 15.545 13.9785 18.3333 9.99935 18.3333C5.39685 18.3333 1.66602 14.6025 1.66602 10C1.66602 6.02083 4.45435 2.69333 8.18435 1.865ZM15.136 1.90917L15.8327 2.08333V2.91667L15.136 3.09083C14.843 3.16411 14.5754 3.31563 14.3619 3.52919C14.1483 3.74275 13.9968 4.01033 13.9235 4.30333L13.7493 5H12.916L12.7418 4.30333C12.6686 4.01033 12.5171 3.74275 12.3035 3.52919C12.0899 3.31563 11.8223 3.16411 11.5293 3.09083L10.8327 2.91667V2.08333L11.5293 1.90917C11.8222 1.83576 12.0896 1.68418 12.303 1.47063C12.5164 1.25707 12.6678 0.989563 12.741 0.696667L12.916 0H13.7493L13.9235 0.696667C13.9968 0.989666 14.1483 1.25725 14.3619 1.47081C14.5754 1.68437 14.843 1.83589 15.136 1.90917ZM19.3027 6.07583L19.9993 6.25V7.08333L19.3027 7.2575C19.0097 7.33078 18.7421 7.48229 18.5285 7.69586C18.315 7.90942 18.1635 8.177 18.0902 8.47L17.916 9.16667H17.0827L16.9085 8.47C16.8352 8.177 16.6837 7.90942 16.4702 7.69586C16.2566 7.48229 15.989 7.33078 15.696 7.2575L14.9993 7.08333V6.25L15.696 6.07583C15.989 6.00256 16.2566 5.85104 16.4702 5.63748C16.6837 5.42391 16.8352 5.15633 16.9085 4.86333L17.0827 4.16667H17.916L18.0902 4.86333C18.1635 5.15633 18.315 5.42391 18.5285 5.63748C18.7421 5.85104 19.0097 6.00256 19.3027 6.07583Z" fill="#525252"/>
</g>
<defs>
<clipPath id="clip0_643_7401">
<rect width="20" height="20" fill="white"/>
</clipPath>
</defs>
</svg>
