<svg width="22" height="22" viewBox="0 0 22 22" fill="none" xmlns="http://www.w3.org/2000/svg">
<path d="M9.16659 6.41683C9.1664 7.69158 9.54591 8.9375 10.2567 9.99569C10.9675 11.0539 11.9774 11.8764 13.1575 12.3583C14.3377 12.8402 15.6347 12.9596 16.883 12.7014C18.1313 12.4432 19.2744 11.819 20.1666 10.9085V11.0002C20.1666 16.0629 16.0627 20.1668 10.9999 20.1668C5.93717 20.1668 1.83325 16.0629 1.83325 11.0002C1.83325 5.93741 5.93717 1.8335 10.9999 1.8335H11.0916C10.4811 2.43036 9.9963 3.14338 9.66569 3.93054C9.33509 4.71769 9.16538 5.56306 9.16659 6.41683ZM3.66659 11.0002C3.66592 12.6364 4.21249 14.2258 5.21932 15.5156C6.22615 16.8054 7.63542 17.7214 9.22288 18.1179C10.8103 18.5144 12.4848 18.3686 13.9799 17.7037C15.4749 17.0388 16.7046 15.893 17.4734 14.4487C16.1052 14.771 14.6774 14.7384 13.3253 14.354C11.9733 13.9696 10.7419 13.2461 9.74795 12.2521C8.75401 11.2582 8.03051 10.0268 7.64609 8.67474C7.26167 7.32269 7.22909 5.89484 7.55142 4.52666C6.3777 5.15196 5.39614 6.08469 4.71182 7.225C4.0275 8.36532 3.6662 9.67027 3.66659 11.0002Z" fill="#9D9D9D"/>
</svg>
