<svg width="20" height="20" viewBox="0 0 20 20" fill="none" xmlns="http://www.w3.org/2000/svg">
<path d="M10.8641 17.6405C12.7344 15.629 17 10.7539 17 8.01557C17 4.69447 13.8646 2 10 2C6.13542 2 3 4.69447 3 8.01557C3 10.7539 7.26563 15.629 9.13594 17.6405C9.58438 18.1198 10.4156 18.1198 10.8641 17.6405V17.6405ZM10 10.0208C8.71302 10.0208 7.66667 9.12155 7.66667 8.01557C7.66667 6.90958 8.71302 6.01038 10 6.01038C11.287 6.01038 12.3333 6.90958 12.3333 8.01557C12.3333 9.12155 11.287 10.0208 10 10.0208Z" fill="#1F77FC"/>
</svg>
