<svg width="16" height="16" viewBox="0 0 16 16" fill="none" xmlns="http://www.w3.org/2000/svg">
<path d="M6.33643 7.1682C6.92906 8.20934 7.79128 9.07156 8.83243 9.6642L9.39074 8.8823C9.48053 8.75658 9.61328 8.66812 9.76388 8.63367C9.91449 8.59922 10.0725 8.62117 10.208 8.69535C11.1013 9.18352 12.0877 9.47711 13.1025 9.55683C13.2609 9.56938 13.4088 9.64116 13.5166 9.75787C13.6244 9.87458 13.6842 10.0276 13.6842 10.1865V13.0046C13.6842 13.161 13.6263 13.3118 13.5215 13.4279C13.4167 13.544 13.2726 13.6171 13.1171 13.633C12.7823 13.6678 12.4451 13.6848 12.1053 13.6848C6.69895 13.6848 2.3158 9.30167 2.3158 3.89535C2.3158 3.55556 2.33285 3.2183 2.36759 2.88356C2.38354 2.728 2.45663 2.58389 2.57272 2.47912C2.6888 2.37435 2.83963 2.31637 2.99601 2.31641H5.81411C5.97299 2.31639 6.12605 2.37625 6.24275 2.48406C6.35946 2.59187 6.43124 2.73971 6.4438 2.89809C6.52352 3.91291 6.81711 4.89936 7.30527 5.79262C7.37946 5.92813 7.4014 6.08614 7.36695 6.23674C7.3325 6.38734 7.24405 6.5201 7.11832 6.60988L6.33643 7.1682ZM4.74359 6.75325L5.94359 5.8962C5.60303 5.1611 5.3697 4.38094 5.25074 3.57956H3.58527C3.58148 3.68441 3.57959 3.78988 3.57959 3.89535C3.57895 8.60441 7.39622 12.4217 12.1053 12.4217C12.2107 12.4217 12.3162 12.4198 12.4211 12.4154V10.7499C11.6197 10.6309 10.8395 10.3976 10.1044 10.057L9.24738 11.257C8.90232 11.123 8.56717 10.9647 8.24443 10.7834L8.2078 10.7625C6.969 10.0575 5.94313 9.03162 5.23811 7.79283L5.21727 7.7562C5.03595 7.43345 4.87766 7.0983 4.74359 6.75325Z" fill="#1F77FC"/>
</svg>
