<svg width="38" height="19" viewBox="0 0 38 19" fill="none" xmlns="http://www.w3.org/2000/svg">
<path d="M9.50016 17.4173C5.12779 17.4173 1.5835 13.873 1.5835 9.50065C1.5835 5.12828 5.12779 1.58398 9.50016 1.58398C13.8725 1.58398 17.4168 5.12828 17.4168 9.50065C17.4168 13.873 13.8725 17.4173 9.50016 17.4173ZM9.50016 15.834C11.1799 15.834 12.7908 15.1667 13.9785 13.979C15.1662 12.7913 15.8335 11.1804 15.8335 9.50065C15.8335 7.82095 15.1662 6.21004 13.9785 5.02231C12.7908 3.83458 11.1799 3.16732 9.50016 3.16732C7.82046 3.16732 6.20955 3.83458 5.02182 5.02231C3.83409 6.21004 3.16683 7.82095 3.16683 9.50065C3.16683 11.1804 3.83409 12.7913 5.02182 13.979C6.20955 15.1667 7.82046 15.834 9.50016 15.834Z" fill="#9D9D9D"/>
<path d="M28.5002 17.4173C24.1278 17.4173 20.5835 13.873 20.5835 9.50065C20.5835 5.12828 24.1278 1.58398 28.5002 1.58398C32.8725 1.58398 36.4168 5.12828 36.4168 9.50065C36.4168 13.873 32.8725 17.4173 28.5002 17.4173ZM28.5002 15.834C30.1799 15.834 31.7908 15.1667 32.9785 13.979C34.1662 12.7913 34.8335 11.1804 34.8335 9.50065C34.8335 7.82095 34.1662 6.21004 32.9785 5.02231C31.7908 3.83458 30.1799 3.16732 28.5002 3.16732C26.8205 3.16732 25.2096 3.83458 24.0218 5.02231C22.8341 6.21004 22.1668 7.82095 22.1668 9.50065C22.1668 11.1804 22.8341 12.7913 24.0218 13.979C25.2096 15.1667 26.8205 15.834 28.5002 15.834Z" fill="#1F77FC"/>
<circle cx="28.5" cy="9.49947" r="3.45455" fill="#1F77FC"/>
</svg>
