<svg width="20" height="18" viewBox="0 0 20 18" fill="none" xmlns="http://www.w3.org/2000/svg">
<path d="M0 2.57143C0 1.15313 1.12109 0 2.5 0H17.5C18.8789 0 20 1.15313 20 2.57143V15.4286C20 16.8469 18.8789 18 17.5 18H2.5C1.12109 18 0 16.8469 0 15.4286V2.57143ZM12.6484 6.85045C12.4727 6.58527 12.1836 6.42857 11.875 6.42857C11.5664 6.42857 11.2734 6.58527 11.1016 6.85045L7.70312 11.9772L6.66797 10.6473C6.48828 10.4183 6.21875 10.2857 5.9375 10.2857C5.65625 10.2857 5.38281 10.4183 5.20703 10.6473L2.70703 13.8616C2.48047 14.1509 2.4375 14.5487 2.59375 14.8821C2.75 15.2156 3.07813 15.4286 3.4375 15.4286H7.1875H8.4375H16.5625C16.9102 15.4286 17.2305 15.2317 17.3906 14.9143C17.5508 14.5969 17.5312 14.2152 17.3359 13.9219L12.6484 6.85045ZM4.375 6.42857C5.41016 6.42857 6.25 5.56473 6.25 4.5C6.25 3.43527 5.41016 2.57143 4.375 2.57143C3.33984 2.57143 2.5 3.43527 2.5 4.5C2.5 5.56473 3.33984 6.42857 4.375 6.42857Z" fill="#1F77FC"/>
</svg>
