<svg width="22" height="22" viewBox="0 0 22 22" fill="none" xmlns="http://www.w3.org/2000/svg">
<path d="M3.66683 14.6673V3.66732H1.8335V1.83398H4.5835C4.82661 1.83398 5.05977 1.93056 5.23168 2.10247C5.40359 2.27438 5.50016 2.50754 5.50016 2.75065V13.7506H16.9017L18.735 6.41732H7.3335V4.58398H19.9102C20.0495 4.58399 20.187 4.61576 20.3122 4.67688C20.4374 4.738 20.5471 4.82686 20.6328 4.93671C20.7185 5.04655 20.7781 5.1745 20.8069 5.31082C20.8358 5.44714 20.8332 5.58824 20.7993 5.7234L18.5077 14.8901C18.458 15.0883 18.3435 15.2642 18.1824 15.39C18.0213 15.5157 17.8228 15.584 17.6185 15.584H4.5835C4.34038 15.584 4.10722 15.4874 3.93531 15.3155C3.76341 15.1436 3.66683 14.9104 3.66683 14.6673V14.6673ZM5.50016 21.084C5.01393 21.084 4.54762 20.8908 4.2038 20.547C3.85998 20.2032 3.66683 19.7369 3.66683 19.2506C3.66683 18.7644 3.85998 18.2981 4.2038 17.9543C4.54762 17.6105 5.01393 17.4173 5.50016 17.4173C5.98639 17.4173 6.45271 17.6105 6.79653 17.9543C7.14034 18.2981 7.3335 18.7644 7.3335 19.2506C7.3335 19.7369 7.14034 20.2032 6.79653 20.547C6.45271 20.8908 5.98639 21.084 5.50016 21.084ZM16.5002 21.084C16.0139 21.084 15.5476 20.8908 15.2038 20.547C14.86 20.2032 14.6668 19.7369 14.6668 19.2506C14.6668 18.7644 14.86 18.2981 15.2038 17.9543C15.5476 17.6105 16.0139 17.4173 16.5002 17.4173C16.9864 17.4173 17.4527 17.6105 17.7965 17.9543C18.1403 18.2981 18.3335 18.7644 18.3335 19.2506C18.3335 19.7369 18.1403 20.2032 17.7965 20.547C17.4527 20.8908 16.9864 21.084 16.5002 21.084Z" fill="#1F77FC"/>
</svg>
