<svg width="22" height="22" viewBox="0 0 22 22" fill="none" xmlns="http://www.w3.org/2000/svg">
<path d="M11.0001 16.4998C9.54139 16.4998 8.14244 15.9204 7.11099 14.8889C6.07954 13.8575 5.50008 12.4585 5.50008 10.9998C5.50008 9.54115 6.07954 8.1422 7.11099 7.11075C8.14244 6.0793 9.54139 5.49984 11.0001 5.49984C12.4588 5.49984 13.8577 6.0793 14.8892 7.11075C15.9206 8.1422 16.5001 9.54115 16.5001 10.9998C16.5001 12.4585 15.9206 13.8575 14.8892 14.8889C13.8577 15.9204 12.4588 16.4998 11.0001 16.4998ZM11.0001 14.6665C11.9725 14.6665 12.9052 14.2802 13.5928 13.5926C14.2804 12.9049 14.6667 11.9723 14.6667 10.9998C14.6667 10.0274 14.2804 9.09475 13.5928 8.40711C12.9052 7.71948 11.9725 7.33317 11.0001 7.33317C10.0276 7.33317 9.09499 7.71948 8.40736 8.40711C7.71972 9.09475 7.33341 10.0274 7.33341 10.9998C7.33341 11.9723 7.71972 12.9049 8.40736 13.5926C9.09499 14.2802 10.0276 14.6665 11.0001 14.6665ZM10.0834 0.916504H11.9167V3.6665H10.0834V0.916504ZM10.0834 18.3332H11.9167V21.0832H10.0834V18.3332ZM3.22216 4.51809L4.51833 3.22192L6.46258 5.16617L5.16641 6.46234L3.22216 4.519V4.51809ZM15.5376 16.8335L16.8337 15.5373L18.778 17.4816L17.4818 18.7778L15.5376 16.8335ZM17.4818 3.221L18.778 4.51809L16.8337 6.46234L15.5376 5.16617L17.4818 3.22192V3.221ZM5.16641 15.5373L6.46258 16.8335L4.51833 18.7778L3.22216 17.4816L5.16641 15.5373ZM21.0834 10.0832V11.9165H18.3334V10.0832H21.0834ZM3.66675 10.0832V11.9165H0.916748V10.0832H3.66675Z" fill="#313131"/>
</svg>
