<svg width="20" height="20" viewBox="0 0 20 20" fill="none" xmlns="http://www.w3.org/2000/svg">
<g clip-path="url(#clip0_643_7658)">
<path d="M10.0007 15C8.67457 15 7.4028 14.4733 6.46512 13.5356C5.52744 12.5979 5.00065 11.3261 5.00065 10C5.00065 8.67396 5.52744 7.40219 6.46512 6.46451C7.4028 5.52683 8.67457 5.00004 10.0007 5.00004C11.3267 5.00004 12.5985 5.52683 13.5362 6.46451C14.4739 7.40219 15.0007 8.67396 15.0007 10C15.0007 11.3261 14.4739 12.5979 13.5362 13.5356C12.5985 14.4733 11.3267 15 10.0007 15ZM9.16732 0.833374H10.834V3.33337H9.16732V0.833374ZM9.16732 16.6667H10.834V19.1667H9.16732V16.6667ZM2.92982 4.10754L4.10815 2.92921L5.87565 4.69671L4.69732 5.87504L2.92982 4.10837V4.10754ZM14.1257 15.3034L15.304 14.125L17.0715 15.8925L15.8932 17.0709L14.1257 15.3034ZM15.8932 2.92837L17.0715 4.10754L15.304 5.87504L14.1257 4.69671L15.8932 2.92921V2.92837ZM4.69732 14.125L5.87565 15.3034L4.10815 17.0709L2.92982 15.8925L4.69732 14.125ZM19.1673 9.16671V10.8334H16.6673V9.16671H19.1673ZM3.33398 9.16671V10.8334H0.833984V9.16671H3.33398Z" fill="white"/>
</g>
<defs>
<clipPath id="clip0_643_7658">
<rect width="20" height="20" fill="white"/>
</clipPath>
</defs>
</svg>
