<svg width="22" height="22" viewBox="0 0 22 22" fill="none" xmlns="http://www.w3.org/2000/svg">
<path d="M3.66683 14.6663V3.66634H1.8335V1.83301H4.5835C4.82661 1.83301 5.05977 1.92958 5.23168 2.10149C5.40359 2.2734 5.50016 2.50656 5.50016 2.74967V13.7497H16.9017L18.735 6.41634H7.3335V4.58301H19.9102C20.0495 4.58301 20.187 4.61478 20.3122 4.6759C20.4374 4.73702 20.5471 4.82588 20.6328 4.93573C20.7185 5.04558 20.7781 5.17352 20.8069 5.30984C20.8358 5.44616 20.8332 5.58726 20.7993 5.72242L18.5077 14.8891C18.458 15.0873 18.3435 15.2633 18.1824 15.389C18.0213 15.5147 17.8228 15.583 17.6185 15.583H4.5835C4.34038 15.583 4.10722 15.4864 3.93531 15.3145C3.76341 15.1426 3.66683 14.9095 3.66683 14.6663ZM5.50016 21.083C5.01393 21.083 4.54762 20.8899 4.2038 20.546C3.85998 20.2022 3.66683 19.7359 3.66683 19.2497C3.66683 18.7634 3.85998 18.2971 4.2038 17.9533C4.54762 17.6095 5.01393 17.4163 5.50016 17.4163C5.98639 17.4163 6.45271 17.6095 6.79653 17.9533C7.14034 18.2971 7.3335 18.7634 7.3335 19.2497C7.3335 19.7359 7.14034 20.2022 6.79653 20.546C6.45271 20.8899 5.98639 21.083 5.50016 21.083ZM16.5002 21.083C16.0139 21.083 15.5476 20.8899 15.2038 20.546C14.86 20.2022 14.6668 19.7359 14.6668 19.2497C14.6668 18.7634 14.86 18.2971 15.2038 17.9533C15.5476 17.6095 16.0139 17.4163 16.5002 17.4163C16.9864 17.4163 17.4527 17.6095 17.7965 17.9533C18.1403 18.2971 18.3335 18.7634 18.3335 19.2497C18.3335 19.7359 18.1403 20.2022 17.7965 20.546C17.4527 20.8899 16.9864 21.083 16.5002 21.083Z" fill="white"/>
</svg>
