<svg width="20" height="20" viewBox="0 0 20 20" fill="none" xmlns="http://www.w3.org/2000/svg">
<g clip-path="url(#clip0_643_6323)">
<path d="M9.99935 18.3333C5.39685 18.3333 1.66602 14.6025 1.66602 9.99999C1.66602 5.39749 5.39685 1.66666 9.99935 1.66666C14.6018 1.66666 18.3327 5.39749 18.3327 9.99999C18.3327 14.6025 14.6018 18.3333 9.99935 18.3333ZM9.99935 16.6667C11.7675 16.6667 13.4632 15.9643 14.7134 14.714C15.9636 13.4638 16.666 11.7681 16.666 9.99999C16.666 8.23188 15.9636 6.53619 14.7134 5.28594C13.4632 4.0357 11.7675 3.33332 9.99935 3.33332C8.23124 3.33332 6.53555 4.0357 5.2853 5.28594C4.03506 6.53619 3.33268 8.23188 3.33268 9.99999C3.33268 11.7681 4.03506 13.4638 5.2853 14.714C6.53555 15.9643 8.23124 16.6667 9.99935 16.6667ZM10.8327 9.99999H14.166V11.6667H9.16602V5.83332H10.8327V9.99999Z" fill="#525252"/>
</g>
<defs>
<clipPath id="clip0_643_6323">
<rect width="20" height="20" fill="white"/>
</clipPath>
</defs>
</svg>
